<svg xmlns="http://www.w3.org/2000/svg" viewBox="105 94 30 52">
  <path fill="#457a00" d="M 129.21875 119.816406 C 126.359375 116.84375 123.011719 114.761719 124.121094 112.261719 C 124.875 110.5625 127.707031 108.488281 126.140625 104.414062 C 125.113281 101.738281 121.480469 99.046875 123.050781 96.550781 C 120.15625 97.539062 119.125 100.667969 119.96875 102.445312 C 120.8125 104.226562 121.457031 107.273438 118.648438 108.863281 C 115.835938 110.457031 109.890625 114.296875 112.792969 120.570312 C 119.78125 118.117188 125.816406 121.738281 126.191406 128.015625 C 126.566406 134.289062 119.402344 136.808594 116.191406 133.21875 C 114.894531 131.765625 115.558594 130.449219 116.027344 129.980469 C 116.507812 132.023438 119.679688 133.070312 121.742188 131.105469 C 123.800781 129.136719 123.746094 123.214844 117.527344 122.488281 C 111.566406 121.796875 105.820312 126.015625 107.320312 134.351562 C 108.816406 142.6875 121.441406 146.863281 128.273438 140.015625 C 134.484375 133.796875 134.128906 124.914062 129.21875 119.816406 Z" fill-rule="nonzero"/>
</svg>
 